<svg xmlns="http://www.w3.org/2000/svg" version="1.1" xmlns:xlink="http://www.w3.org/1999/xlink" xmlns:svgjs="http://svgjs.dev/svgjs" width="2000" height="1200" preserveAspectRatio="none" viewBox="0 0 2000 1200"><g mask="url(&quot;#SvgjsMask1018&quot;)" fill="none"><rect width="2000" height="1200" x="0" y="0" fill="rgba(112, 22, 60, 1)"></rect><path d="M573.91 0C587.79 0.46 586.16 10 600 10C699.2 10 699.96 3.33 800 0C849.96 -1.67 850 0 900 0C1050 0 1050 0 1200 0C1350 0 1350 0 1500 0C1650 0 1650 0 1800 0C1875 0 1912.72 -48.9 1950 0C2027.09 101.1 1978.87 154.02 2028.75 300C2053.87 373.53 2082.46 365.15 2100 439.02C2118.08 515.15 2100 519.51 2100 600C2100 750 2100 750 2100 900C2100 1050 2175 1125 2100 1200C2025 1275 1950 1200 1800 1200C1650 1200 1650 1200 1500 1200C1350 1200 1350 1200 1200 1200C1050 1200 1050 1200 900 1200C750 1200 750 1200 600 1200C450 1200 450 1200 300 1200C221.74 1200 214.68 1223.04 143.48 1200C64.68 1174.51 33.04 1172.02 0 1102.94C-38.7 1022.02 0 1001.47 0 900C0 750 0 750 0 600C0 450 0 450 0 300C0 150 -75 75 0 0C75 -75 150 0 300 0C436.95 0 437.79 -4.54 573.91 0" stroke="rgba(11, 49, 66, 0.32)" stroke-width="2"></path><path d="M900 75C886.18 75 885.25 189.53 885.25 300C885.25 312.75 889.97 321.43 900 321.43C917.8 321.43 940.91 320.7 940.91 300C940.91 197.49 914.01 75 900 75" stroke="rgba(11, 49, 66, 0.32)" stroke-width="2"></path><path d="M1500 225C1463.86 225 1411.11 267.63 1411.11 300C1411.11 327.77 1460.67 345.28 1500 345.28C1522.51 345.28 1534.78 324.57 1534.78 300C1534.78 264.43 1525.69 225 1500 225" stroke="rgba(11, 49, 66, 0.32)" stroke-width="2"></path><path d="M300 333.33C242.3 333.33 166.67 487.1 166.67 600C166.67 657.93 236.65 675 300 675C348.88 675 391.14 650.43 391.14 600C391.14 479.59 354.54 333.33 300 333.33" stroke="rgba(11, 49, 66, 0.32)" stroke-width="2"></path><path d="M1500 875.51C1463.84 875.51 1425 888.63 1425 900C1425 911.22 1463.51 920.69 1500 920.69C1521.7 920.69 1541.38 911.08 1541.38 900C1541.38 888.49 1522.03 875.51 1500 875.51" stroke="rgba(11, 49, 66, 0.32)" stroke-width="2"></path><path d="M264.71 0C306.67 82.09 212.08 151.21 153.33 300C93.62 451.21 -9.63 484.43 27.78 600C63.71 710.99 170.65 753.13 300 753.13C399.8 753.13 459.7 699.6 486.08 600C519.7 473.04 388.27 429.53 420 300C445.23 197.03 512.13 135 600 135C683.28 135 689.1 210.94 762.3 300C839.1 393.44 823.09 407.05 900 500C947.21 557.05 1010.53 544.92 1010.53 600C1010.53 667.33 976.47 705.84 900 744.83C771.21 810.49 733.83 752.4 600 809.3C551.33 829.99 535 856.6 535 900C535 937.41 565.85 937.07 600 970.91C717.22 1087.07 837.74 1133.41 837.74 1200C837.74 1247.95 718.87 1200 600 1200C453.49 1200 452.33 1203.03 306.98 1200C302.33 1199.9 303.88 1196.37 300 1193.75C150.39 1092.7 119.38 1109.54 0 992.65C-30.62 962.66 0 946.33 0 900C0 750 0 750 0 600C0 450 0 450 0 300C0 150 -70.31 79.69 0 0C62.04 -70.31 230 -67.91 264.71 0" stroke="rgba(11, 49, 66, 0.32)" stroke-width="2"></path><path d="M44.12 0C44.12 89.16 11.14 214.29 0 214.29C-10.92 214.29 -18.29 88.85 0 0C3.77 -18.29 44.12 -17.98 44.12 0" stroke="rgba(11, 49, 66, 0.32)" stroke-width="2"></path><path d="M556.36 300C557.92 272.06 578.7 260 600 260C620.19 260 632.06 273.58 639.34 300C678.93 443.58 708.56 473.92 693.75 600C688.89 641.36 640.35 634.88 600 634.88C583.98 634.88 583.55 619.52 581.01 600C561.73 452.08 548.43 442.06 556.36 300" stroke="rgba(11, 49, 66, 0.32)" stroke-width="2"></path><path d="M1752.17 300C1776.61 261.04 1777.33 221.43 1800 221.43C1821.87 221.43 1827.77 257.93 1841.25 300C1888.41 447.21 1934.4 463.34 1921.28 600C1913.78 678.11 1871.06 729.55 1800 729.55C1691.67 729.55 1572.84 692.9 1562.5 600C1548.93 478.12 1657.86 450.33 1752.17 300" stroke="rgba(11, 49, 66, 0.32)" stroke-width="2"></path><path d="M46.15 900C46.15 850.84 178.17 831.25 300 831.25C360.09 831.25 410 856.26 410 900C410 959.38 368.92 1037.5 300 1037.5C187 1037.5 46.15 953.96 46.15 900" stroke="rgba(11, 49, 66, 0.32)" stroke-width="2"></path><path d="M2002.7 900C2002.7 859.73 2071.02 810 2100 810C2119.67 810 2100 855 2100 900C2100 930 2116.75 960 2100 960C2068.1 960 2002.7 934.73 2002.7 900" stroke="rgba(11, 49, 66, 0.32)" stroke-width="2"></path><path d="M481.4 1200C481.4 1174.07 543.1 1107.27 600 1107.27C650.51 1107.27 696.23 1173.04 696.23 1200C696.23 1219.41 648.12 1200 600 1200C540.7 1200 481.4 1220.43 481.4 1200" stroke="rgba(11, 49, 66, 0.32)" stroke-width="2"></path><path d="M1125 1200C1125 1179.09 1152.26 1130.63 1200 1128C1339.76 1120.29 1350.64 1182.72 1500 1179.31C1650.64 1175.87 1667.39 1106.49 1800 1114.29C1843.25 1116.83 1851.72 1171.74 1851.72 1200C1851.72 1214.6 1825.86 1200 1800 1200C1650 1200 1650 1200 1500 1200C1350 1200 1350 1200 1200 1200C1162.5 1200 1125 1215.09 1125 1200" stroke="rgba(11, 49, 66, 0.32)" stroke-width="2"></path></g><defs><mask id="SvgjsMask1018"><rect width="2000" height="1200" fill="#ffffff"></rect></mask></defs></svg>