<svg xmlns="http://www.w3.org/2000/svg" version="1.1" xmlns:xlink="http://www.w3.org/1999/xlink" xmlns:svgjs="http://svgjs.dev/svgjs" width="2000" height="1200" preserveAspectRatio="none" viewBox="0 0 2000 1200"><g mask="url(&quot;#SvgjsMask1025&quot;)" fill="none"><rect width="2000" height="1200" x="0" y="0" fill="rgba(11, 49, 66, 1)"></rect><path d="M286.36 0C296.64 0.55 291.98 16.07 300 16.07C311.3 16.07 310.37 0.78 325 0C460.37 -7.25 462.5 0 600 0C750 0 750 0 900 0C1050 0 1050 0 1200 0C1350 0 1350 0 1500 0C1650 0 1650 0 1800 0C1950 0 2025 -75 2100 0C2175 75 2100 150 2100 300C2100 450 2100 450 2100 600C2100 705.88 2107.01 706.66 2100 811.76C2097.01 856.66 2080 858.26 2080 900C2080 914.48 2098.98 908.86 2100 924.19C2108.98 1058.86 2171.85 1133.94 2100 1200C2021.85 1271.85 1950 1200 1800 1200C1650 1200 1650 1200 1500 1200C1350 1200 1350 1200 1200 1200C1050 1200 1050 1200 900 1200C750 1200 750 1200 600 1200C470.69 1200 387.21 1268.75 341.38 1200C287.21 1118.75 414.79 1032.13 400 900C394.1 847.34 357.55 836.08 300 830.43C157.55 816.44 80.44 922.5 0 860.71C-69.56 807.28 0 730.36 0 600C0 450 0 450 0 300C0 150 -73.26 76.74 0 0C69.92 -73.26 146.64 -7.48 286.36 0" stroke="rgba(46, 15, 21, 0.73)" stroke-width="2"></path><path d="M600 194.12C544.32 198.31 523.94 243.25 523.94 300C523.94 380.57 531.82 460.98 600 468.75C719.85 482.41 757.17 415.17 900 342.86C923.84 330.79 933.33 319.71 933.33 300C933.33 284.13 920.61 278.25 900 271.7C753.94 225.31 732.35 184.16 600 194.12" stroke="rgba(46, 15, 21, 0.73)" stroke-width="2"></path><path d="M1800 261.29C1788.36 261.29 1784.62 278.8 1779.31 300C1742.23 448.16 1707.74 462.14 1715.22 600C1718.08 652.77 1749.64 681.25 1800 681.25C1894.66 681.25 1999.85 673.92 2005.26 600C2013.8 483.3 1918.18 448.96 1827.91 300C1815.55 279.6 1812.66 261.29 1800 261.29" stroke="rgba(46, 15, 21, 0.73)" stroke-width="2"></path><path d="M0 1120C30.78 1120 100 1177.54 100 1200C100 1217.54 27.78 1222.22 0 1200C-22.22 1182.22 -19.22 1120 0 1120" stroke="rgba(46, 15, 21, 0.73)" stroke-width="2"></path><path d="M117.39 300C117.39 254.1 25.08 267.67 0 203.57C-33.61 117.67 -46.72 55.06 0 0C39.64 -46.72 102.6 -35.07 172.73 0C252.6 39.93 237.71 73.9 300 150C360.5 223.9 377.68 215.11 418.31 300C485.37 440.11 548.53 481.84 515.38 600C489.37 692.71 415.6 683.29 300 721.74C157.91 769 95.92 810.36 0 771.43C-54.08 749.49 0 685.71 0 600C0 490.91 -35.45 472.41 0 381.82C23.25 322.41 117.39 343.23 117.39 300" stroke="rgba(46, 15, 21, 0.73)" stroke-width="2"></path><path d="M600 47.06C561.92 33.54 533.33 12.95 533.33 0C533.33 -10.58 566.66 0 600 0C750 0 750 0 900 0C1050 0 1050 0 1200 0C1350 0 1350 0 1500 0C1650 0 1650 0 1800 0C1950 0 2025 -75 2100 0C2175 75 2100 150 2100 300C2100 377.78 2122.39 455.56 2100 455.56C2073.56 455.56 2054.35 375.64 2002.33 300C1904.35 157.53 1891.76 19.35 1800 19.35C1715.6 19.35 1692.77 150.67 1650 300C1609.62 440.99 1591.25 469.99 1633.7 600C1666.25 699.68 1713.06 684.07 1800 759.38C1886.21 834.07 1897.79 821.68 1980 900C2047.79 964.57 2067.07 962.84 2100 1045.16C2127.07 1112.84 2151.06 1173.64 2100 1200C2001.06 1251.06 1950 1200 1800 1200C1789.28 1200 1788.77 1203.16 1778.57 1200C1638.77 1156.73 1625.93 1107.14 1500 1107.14C1448.41 1107.14 1476.01 1183.76 1423.53 1200C1326.01 1230.19 1311.76 1200 1200 1200C1050 1200 1050 1200 900 1200C750 1200 750 1200 600 1200C535.35 1200 477.1 1243.96 470.69 1200C455.23 1093.96 510.05 1048.87 556.25 900C574.7 840.54 561.12 829.99 600 783.33C686.12 679.99 697.04 682.34 806.25 600C847.04 569.24 864.7 593.2 900 557.14C1011.57 443.2 1100 418.24 1100 300C1100 204.77 1014.34 188.03 900 130.19C764.34 61.56 745.26 98.64 600 47.06" stroke="rgba(46, 15, 21, 0.73)" stroke-width="2"></path><path d="M280.43 300C290.78 292.71 291.08 283.93 300 283.93C307.21 283.93 311.94 289.91 312.68 300C323.48 447.95 328.91 456.18 323.08 600C322.57 612.7 312.81 609.78 300 613.04C151.27 650.85 118.41 687.29 0 682.14C-31.59 680.77 0 641.07 0 600C0 547.72 -32.84 530.58 0 495.45C107.37 380.58 140.78 398.47 280.43 300" stroke="rgba(46, 15, 21, 0.73)" stroke-width="2"></path><path d="M59.09 0C59.09 21.14 16.76 69.64 0 69.64C-12.78 69.64 -15.98 18.84 0 0C13.56 -15.98 59.09 -13.68 59.09 0" stroke="rgba(46, 15, 21, 0.73)" stroke-width="2"></path><path d="M1200 196.55C1057.98 108.83 928.57 54.3 928.57 0C928.57 -43.98 1064.28 0 1200 0C1314 0 1346.93 -48.64 1428 0C1496.93 41.36 1471.53 87.87 1500 180C1517.88 237.87 1513.19 239.61 1520.69 300C1539.27 449.61 1486.85 474.3 1552.17 600C1626.5 743.05 1673.5 721.74 1800 837.5C1837.41 871.74 1880 861.12 1880 900C1880 960.55 1862.99 1031.62 1800 1036.36C1672.99 1045.91 1649.15 984.57 1500 928.57C1467.57 916.39 1452.14 929.33 1436.84 900C1366.43 765.05 1334.27 751.65 1328.57 600C1322.99 451.65 1450.76 414.44 1414.29 300C1386.48 212.72 1300.84 258.83 1200 196.55" stroke="rgba(46, 15, 21, 0.73)" stroke-width="2"></path><path d="M834.78 900C863.09 866.03 866.35 840 900 840C936.46 840 936.33 871.55 975 900C1086.33 981.9 1104.28 965.45 1200 1060.71C1255.01 1115.45 1276.47 1152.98 1276.47 1200C1276.47 1222.63 1238.24 1200 1200 1200C1050 1200 1050 1200 900 1200C750 1200 614.37 1266.08 600 1200C581.76 1116.08 713.09 1046.03 834.78 900" stroke="rgba(46, 15, 21, 0.73)" stroke-width="2"></path><path d="M2032.26 1200C2032.26 1191.06 2076.6 1166.13 2100 1166.13C2110.47 1166.13 2111.29 1194.36 2100 1200C2077.42 1211.29 2032.26 1208 2032.26 1200" stroke="rgba(46, 15, 21, 0.73)" stroke-width="2"></path></g><defs><mask id="SvgjsMask1025"><rect width="2000" height="1200" fill="#ffffff"></rect></mask></defs></svg>