<svg xmlns="http://www.w3.org/2000/svg" version="1.1" xmlns:xlink="http://www.w3.org/1999/xlink" xmlns:svgjs="http://svgjs.dev/svgjs" width="2000" height="1200" preserveAspectRatio="none" viewBox="0 0 2000 1200"><g mask="url(&quot;#SvgjsMask1030&quot;)" fill="none"><rect width="2000" height="1200" x="0" y="0" fill="rgba(46, 15, 21, 1)"></rect><path d="M333.33 0C468.11 56.75 491.58 126.32 600 126.32C649.92 126.32 597.19 22.24 650 0C747.19 -40.92 775 0 900 0C1050 0 1050 0 1200 0C1350 0 1350 0 1500 0C1650 0 1650 0 1800 0C1950 0 2019.74 -69.74 2100 0C2169.74 60.59 2165.55 186.92 2100 260.66C2032.21 336.92 1833.33 281.06 1833.33 300C1833.33 318.91 2032.64 260.59 2100 336.36C2165.98 410.59 2100 468.18 2100 600C2100 750 2100 750 2100 900C2100 1050 2175 1125 2100 1200C2025 1275 1950 1200 1800 1200C1660.28 1200 1648.75 1218.31 1520.55 1200C1498.75 1196.88 1511.07 1157.14 1500 1157.14C1488.5 1157.14 1498.23 1196.74 1475.41 1200C1348.23 1218.17 1337.7 1200 1200 1200C1050 1200 1050 1200 900 1200C750 1200 750 1200 600 1200C450 1200 450 1200 300 1200C150 1200 75 1275 0 1200C-75 1125 0 1050 0 900C0 753.19 -73.31 661.99 0 606.38C76.69 548.2 167.54 674.94 300 672.41C334.47 671.75 333.87 633.52 333.87 600C333.87 579.21 323.68 566.45 300 563.79C156.74 547.7 80 632.84 0 562.5C-70 500.95 0 431.25 0 300C0 150 -75 75 0 0C75 -75 150 0 300 0C316.66 0 318.11 -6.41 333.33 0" stroke="rgba(78, 20, 140, 0.53)" stroke-width="2"></path><path d="M900 218.18C819.56 218.18 726.92 238.21 726.92 300C726.92 391.62 829.04 525 900 525C960.58 525 990 402.14 990 300C990 248.73 951.1 218.18 900 218.18" stroke="rgba(78, 20, 140, 0.53)" stroke-width="2"></path><path d="M1500 509.43C1450.35 545.62 1415.79 553.24 1415.79 600C1415.79 650.7 1440.66 688.13 1500 704.35C1632.76 740.63 1672.06 742.26 1800 705C1851.22 690.08 1858.33 656.93 1858.33 600C1858.33 464.43 1879.97 340.21 1800 320C1700.8 294.93 1642.45 405.62 1500 509.43" stroke="rgba(78, 20, 140, 0.53)" stroke-width="2"></path><path d="M600 853.85C552.84 853.85 506.25 872.1 506.25 900C506.25 931.76 552.56 973.17 600 973.17C649.43 973.17 700 931.59 700 900C700 871.93 649.71 853.85 600 853.85" stroke="rgba(78, 20, 140, 0.53)" stroke-width="2"></path><path d="M1200 795.24C1124.1 795.24 1042.86 851.32 1042.86 900C1042.86 946.01 1123.42 984.62 1200 984.62C1265.45 984.62 1326.92 945.55 1326.92 900C1326.92 850.86 1266.13 795.24 1200 795.24" stroke="rgba(78, 20, 140, 0.53)" stroke-width="2"></path><path d="M122.73 300C122.73 225.22 209.53 144 300 144C395.67 144 399.35 219.83 495 300C549.35 345.56 551.2 344.08 600 395.45C693.7 494.08 780 506.46 780 600C780 677.96 686.32 738.46 600 738.46C523.74 738.46 525.27 671.36 454.84 600C375.27 519.37 383.79 510.17 300 434.48C217.74 360.17 122.73 370.46 122.73 300" stroke="rgba(78, 20, 140, 0.53)" stroke-width="2"></path><path d="M900 81.82C847.13 81.82 806.25 23.33 806.25 0C806.25 -17.58 853.13 0 900 0C990 0 1080 -19.5 1080 0C1080 21.41 984.01 81.82 900 81.82" stroke="rgba(78, 20, 140, 0.53)" stroke-width="2"></path><path d="M1140 300C1162.9 222.72 1158.12 217.92 1200 150C1250.62 67.92 1245.9 39.55 1325 0C1395.9 -35.45 1412.5 0 1500 0C1577.78 0 1638.68 -50.65 1655.56 0C1688.68 99.35 1655.71 168.24 1600 300C1577.93 352.2 1543.6 326.5 1500 367.92C1385.7 476.5 1394.64 486.53 1284.21 600C1244.64 640.66 1246.24 676.19 1200 676.19C1137.47 676.19 1076.63 662.47 1066.67 600C1046.63 474.37 1096.23 447.72 1140 300" stroke="rgba(78, 20, 140, 0.53)" stroke-width="2"></path><path d="M2100 137.7C2034.24 137.7 1895.12 37.62 1895.12 0C1895.12 -31.23 2038.74 -41.18 2100 0C2141.18 27.67 2136.68 137.7 2100 137.7" stroke="rgba(78, 20, 140, 0.53)" stroke-width="2"></path><path d="M1962.5 600C1962.5 520.67 2060.42 450 2100 450C2129.17 450 2100 525 2100 600C2100 697.06 2130.89 794.12 2100 794.12C2062.14 794.12 1962.5 692.73 1962.5 600" stroke="rgba(78, 20, 140, 0.53)" stroke-width="2"></path><path d="M0 765.96C90.22 765.96 132.71 830.56 262.5 900C282.71 910.81 281.72 912.6 300 926.47C450.47 1040.65 449.42 1154.9 600 1156.1C749.42 1157.29 741.61 951.14 900 931.25C1041.61 913.47 1056.58 995.58 1200 1080.77C1282.81 1129.96 1352.46 1166.65 1352.46 1200C1352.46 1226.27 1276.23 1200 1200 1200C1050 1200 1050 1200 900 1200C750 1200 750 1200 600 1200C450 1200 450 1200 300 1200C191.86 1200 175.42 1233.34 83.72 1200C25.42 1178.8 17.53 1153.72 0 1090.91C-24.33 1003.72 0 995.45 0 900C0 832.98 -41.03 765.96 0 765.96" stroke="rgba(78, 20, 140, 0.53)" stroke-width="2"></path><path d="M1471.15 900C1471.15 882.74 1479.22 867.86 1500 867.39C1643.65 864.11 1650.77 877.09 1800 892.5C1808.67 893.39 1807.55 897.1 1815.79 900C1957.55 949.94 2014.97 908.42 2100 998.18C2157.07 1058.42 2160.33 1159.42 2100 1200C2010.33 1260.33 1950 1200 1800 1200C1711.64 1200 1680.68 1249.19 1623.29 1200C1530.68 1120.62 1564.4 1069.85 1500 942.86C1488.33 919.85 1471.15 920.48 1471.15 900" stroke="rgba(78, 20, 140, 0.53)" stroke-width="2"></path><path d="M293.18 300C293.18 297.12 296.52 294 300 294C303.68 294 307.5 297.13 307.5 300C307.5 302.72 303.69 305.17 300 305.17C296.53 305.17 293.18 302.71 293.18 300" stroke="rgba(78, 20, 140, 0.53)" stroke-width="2"></path><path d="M2100 14.75C2092.95 14.75 2078.05 4.03 2078.05 0C2078.05 -3.34 2093.44 -4.41 2100 0C2104.41 2.96 2103.93 14.75 2100 14.75" stroke="rgba(78, 20, 140, 0.53)" stroke-width="2"></path><path d="M575.81 600C575.81 584.12 587.01 565.91 600 565.91C614.11 565.91 630 584.41 630 600C630 612.99 614.39 623.08 600 623.08C587.29 623.08 575.81 612.7 575.81 600" stroke="rgba(78, 20, 140, 0.53)" stroke-width="2"></path><path d="M2066.67 600C2066.67 580.77 2090.41 563.64 2100 563.64C2107.07 563.64 2100 581.82 2100 600C2100 623.53 2107.49 647.06 2100 647.06C2090.82 647.06 2066.67 622.48 2066.67 600" stroke="rgba(78, 20, 140, 0.53)" stroke-width="2"></path><path d="M258.14 1200C258.14 1183.66 275.51 1147.06 300 1147.06C332.44 1147.06 372 1185.34 372 1200C372 1211.81 336 1200 300 1200C279.07 1200 258.14 1210.13 258.14 1200" stroke="rgba(78, 20, 140, 0.53)" stroke-width="2"></path><path d="M754.05 1200C754.05 1168.61 817.38 1091.78 900 1087.5C1040.35 1080.24 1052.85 1126.68 1200 1176.92C1217.61 1182.93 1229.51 1193.54 1229.51 1200C1229.51 1205.08 1214.76 1200 1200 1200C1050 1200 1050 1200 900 1200C827.03 1200 754.05 1224.86 754.05 1200" stroke="rgba(78, 20, 140, 0.53)" stroke-width="2"></path><path d="M1726.03 1200C1726.03 1157.11 1739.03 1082.1 1800 1071.43C1926.01 1049.38 1976.39 1081.57 2100 1134.55C2126.39 1145.86 2126.86 1194.14 2100 1200C1976.86 1226.86 1950 1200 1800 1200C1763.01 1200 1726.03 1221.39 1726.03 1200" stroke="rgba(78, 20, 140, 0.53)" stroke-width="2"></path></g><defs><mask id="SvgjsMask1030"><rect width="2000" height="1200" fill="#ffffff"></rect></mask></defs></svg>