<svg xmlns="http://www.w3.org/2000/svg" version="1.1" xmlns:xlink="http://www.w3.org/1999/xlink" xmlns:svgjs="http://svgjs.dev/svgjs" width="1440" height="560" preserveAspectRatio="none" viewBox="0 0 1440 560"><g mask="url(&quot;#SvgjsMask1005&quot;)" fill="none"><rect width="1440" height="560" x="0" y="0" fill="rgba(112, 22, 60, 1)"></rect><path d="M80.37 0C113.3 9.24 112.12 17.09 140 39.27C200.1 87.09 198.12 89.69 256.34 140C268.12 150.18 268.56 160.24 280 160.24C290.51 160.24 297.36 153.55 300.24 140C314.39 73.43 279.89 39.93 314.05 0C339.77 -30.07 367.02 0 420 0C490 0 490 0 560 0C612.81 0 617.08 -10.96 665.61 0C687.08 4.85 678.3 25.64 700 31.61C765.49 49.64 775.08 58.15 840 48C876.19 42.34 867.04 12.06 902.22 0C937.04 -11.94 941.11 0 980 0C1050 0 1050 0 1120 0C1190 0 1190 0 1260 0C1314.45 0 1325.7 -18.51 1368.89 0C1395.7 11.49 1382.46 60 1400 60C1419.01 60 1412.06 12.83 1442 0C1482.06 -17.17 1519.82 -28.82 1540 0C1568.82 41.18 1540 70 1540 140C1540 210 1540 210 1540 280C1540 350 1540 350 1540 420C1540 482.5 1572.67 522.44 1540 545C1502.67 570.78 1461.09 511.11 1400 516.67C1378.62 518.61 1396.27 553.44 1375.07 560C1326.27 575.1 1317.53 560 1260 560C1190 560 1190 560 1120 560C1050 560 1050 560 980 560C910 560 910 560 840 560C770 560 770 560 700 560C630 560 630 560 560 560C505.78 560 502.56 569.17 451.55 560C432.56 556.59 438.19 534.83 420 534.83C380.93 534.83 379.26 552.41 337.04 560C309.26 564.99 308.52 560 280 560C210 560 210 560 140 560C70 560 35 595 0 560C-35 525 0 490 0 420C0 350 0 350 0 280C0 210 0 210 0 140C0 70 -25.53 44.47 0 0C14.66 -25.53 43.3 -10.4 80.37 0" stroke="rgba(11, 49, 66, 0.32)" stroke-width="2"></path><path d="M980 89.36C955.44 89.36 948.31 110.36 942.22 140C928.71 205.68 928.03 214.27 940.8 280C946.92 311.49 962.27 334.44 980 334.44C996.28 334.44 995.28 307.66 1008.82 280C1042.88 210.44 1083.7 196.2 1075.2 140C1069.29 100.88 1021.93 89.36 980 89.36" stroke="rgba(11, 49, 66, 0.32)" stroke-width="2"></path><path d="M1260 91.88C1209.84 91.88 1157.33 110.65 1157.33 140C1157.33 173.21 1210.91 217 1260 217C1302.77 217 1341.05 173.94 1341.05 140C1341.05 111.38 1301.7 91.88 1260 91.88" stroke="rgba(11, 49, 66, 0.32)" stroke-width="2"></path><path d="M420 249.23C401.87 249.23 389.23 264.7 389.23 280C389.23 295.14 401.95 310.11 420 310.11C450.67 310.11 486.67 295.19 486.67 280C486.67 264.75 450.59 249.23 420 249.23" stroke="rgba(11, 49, 66, 0.32)" stroke-width="2"></path><path d="M140 340.67C102.89 340.67 44.8 379.09 44.8 420C44.8 462.83 103.62 508.15 140 508.15C166.09 508.15 169.75 463.83 169.75 420C169.75 380.09 165.37 340.67 140 340.67" stroke="rgba(11, 49, 66, 0.32)" stroke-width="2"></path><path d="M560 346.96C541.14 346.96 525.36 385.57 525.36 420C525.36 443.36 541.6 462.53 560 462.53C580.18 462.53 602.53 444.02 602.53 420C602.53 386.24 579.72 346.96 560 346.96" stroke="rgba(11, 49, 66, 0.32)" stroke-width="2"></path><path d="M1120 364C1080.29 364 1033.1 396.72 1033.1 420C1033.1 440.88 1078.29 452.31 1120 452.31C1146.94 452.31 1170.4 439.55 1170.4 420C1170.4 395.4 1148.94 364 1120 364" stroke="rgba(11, 49, 66, 0.32)" stroke-width="2"></path><path d="M29.3 140C79.84 105.26 88.01 81.95 140 81.95C176.88 81.95 173.43 111.08 207.04 140C243.43 171.31 244.73 202.41 280 202.41C312.42 202.41 326.77 178.92 342.41 140C367.44 77.71 333.94 49.46 361.35 0C372.73 -20.54 390.67 0 420 0C490 0 490 0 560 0C582.11 0 586.46 -11.17 604.21 0C656.46 32.86 643.28 64.49 700 88.06C761.18 113.49 775.51 80.06 840 98C868.85 106.03 886.67 114.03 886.67 140C886.67 187.53 872.34 200.22 840 245C821.78 270.22 785.56 265.99 785.56 280C785.56 292.4 818.86 279.64 840 297.82C900.28 349.64 899.16 355.5 948.39 420C969.16 447.22 951.81 468.57 980 481.25C1037.62 507.16 1055.38 512.38 1120 497.18C1185.58 481.75 1193.99 468.79 1240.4 420C1263.99 395.2 1233.49 354.65 1260 350C1313.29 340.65 1329.18 374.29 1400 392C1469.18 409.29 1540 409.59 1540 420C1540 430.25 1452.2 399 1400 433.33C1345.76 469 1375.09 516.6 1327.12 560C1305.09 579.93 1293.56 560 1260 560C1190 560 1190 560 1120 560C1050 560 1050 560 980 560C910 560 910 560 840 560C787.14 560 781.01 573.35 734.29 560C711.01 553.35 713.88 542.23 700 520C670.16 472.23 670.4 471.41 646.84 420C615.4 351.41 625.06 344.59 590 280C581.64 264.59 576.61 266.77 560 260C491.61 232.15 483.03 204.74 420 210.77C378.42 214.74 350.77 245.57 350.77 280C350.77 314.06 385.94 313.32 420 347.74C455.2 383.32 489.28 383.49 489.28 420C489.28 457.37 463.76 474.11 420 495.51C359.12 525.27 335.63 542.65 280 522.31C232.38 504.9 238.69 474.97 213.5 420C183.17 353.82 196.87 347 168.97 280C160.12 258.74 156.65 243.48 140 243.48C118.83 243.48 115.94 260.87 93.33 280C45.94 320.1 28.11 361.95 0 361.95C-18.55 361.95 0 320.98 0 280C0 229.09 -9.95 225.71 0 178.18C4.7 155.71 9.84 153.38 29.3 140" stroke="rgba(11, 49, 66, 0.32)" stroke-width="2"></path><path d="M15.56 0C15.56 22.09 3.96 56 0 56C-3.82 56 -6.09 21.91 0 0C1.69 -6.09 15.56 -5.91 15.56 0" stroke="rgba(11, 49, 66, 0.32)" stroke-width="2"></path><path d="M980 14.89C971.6 9.82 967.04 4.49 967.04 0C967.04 -2.95 973.52 0 980 0C1050 0 1050 0 1120 0C1190 0 1190 0 1260 0C1282.03 0 1304.07 -8.06 1304.07 0C1304.07 10.54 1285.5 24.39 1260 37.19C1193.46 70.59 1187.85 97.8 1120 92.4C1047.85 86.65 1048.08 56.02 980 14.89" stroke="rgba(11, 49, 66, 0.32)" stroke-width="2"></path><path d="M1540 18.26C1537.19 18.26 1529.5 6.09 1529.5 0C1529.5 -3.04 1538.08 -3.33 1540 0C1543.33 5.8 1542.44 18.26 1540 18.26" stroke="rgba(11, 49, 66, 0.32)" stroke-width="2"></path><path d="M1111.76 280C1111.76 273.5 1113.52 265.26 1120 265.26C1133.2 265.26 1151.11 274.55 1151.11 280C1151.11 285.03 1134.84 286.22 1120 286.22C1115.17 286.22 1111.76 283.98 1111.76 280" stroke="rgba(11, 49, 66, 0.32)" stroke-width="2"></path><path d="M1493.33 280C1493.33 253.54 1525.86 240 1540 240C1549.2 240 1540 260 1540 280C1540 350 1551.36 420 1540 420C1528.03 420 1493.33 343.54 1493.33 280" stroke="rgba(11, 49, 66, 0.32)" stroke-width="2"></path><path d="M0 482.63C24.2 482.63 81.67 537.59 81.67 560C81.67 576.27 20.97 579.87 0 560C-19.87 541.18 -16.64 482.63 0 482.63" stroke="rgba(11, 49, 66, 0.32)" stroke-width="2"></path><path d="M500.85 560C500.85 544.76 527.17 506.84 560 506.84C606.75 506.84 660 545.88 660 560C660 572.46 610 560 560 560C530.42 560 500.85 571.34 500.85 560" stroke="rgba(11, 49, 66, 0.32)" stroke-width="2"></path><path d="M110.7 140C110.7 130.34 126.24 124.63 140 124.63C149.76 124.63 157.75 131.05 157.75 140C157.75 152.43 150.55 167.39 140 167.39C127.03 167.39 110.7 151.72 110.7 140" stroke="rgba(11, 49, 66, 0.32)" stroke-width="2"></path><path d="M384.58 140C380.34 75.58 392.25 64.82 408.65 0C409.96 -5.18 414.33 0 420 0C452.31 0 468.49 -21.51 484.62 0C520.99 48.49 543.42 90.88 525 140C511.11 177.03 468.88 172.31 420 172.31C398.67 172.31 386.01 161.74 384.58 140" stroke="rgba(11, 49, 66, 0.32)" stroke-width="2"></path><path d="M1120 22.4C1098.87 22.4 1080 5.98 1080 0C1080 -5.22 1100 0 1120 0C1155 0 1190 -5.46 1190 0C1190 5.74 1153.87 22.4 1120 22.4" stroke="rgba(11, 49, 66, 0.32)" stroke-width="2"></path><path d="M229.31 280C232.75 253.49 256.62 244.58 280 244.58C298.12 244.58 295.41 263.01 312.31 280C365.41 333.41 366.57 332.28 420 385.38C437.01 402.28 453.2 402.51 453.2 420C453.2 437.91 442.49 451.64 420 456.18C355.89 469.14 342.68 468.94 280 455C261.31 450.85 262.98 439.8 257.25 420C237.64 352.3 221.37 341.2 229.31 280" stroke="rgba(11, 49, 66, 0.32)" stroke-width="2"></path><path d="M691.14 420C691.14 402.14 684.29 389.34 700 383.16C758.72 360.06 778.18 349.58 840 361.45C874.15 368 876.42 385.15 891.94 420C920.63 484.42 944.54 516.55 928.42 560C918.57 586.55 884.21 560 840 560C822.86 560 817.91 570.75 805.71 560C747.91 509.08 751.32 499.38 700 436.67C694.04 429.38 691.14 428.9 691.14 420" stroke="rgba(11, 49, 66, 0.32)" stroke-width="2"></path><path d="M550.14 560C550.14 557.46 554.53 551.14 560 551.14C567.79 551.14 576.67 557.65 576.67 560C576.67 562.08 568.34 560 560 560C555.07 560 550.14 561.89 550.14 560" stroke="rgba(11, 49, 66, 0.32)" stroke-width="2"></path><path d="M1037.65 560C1037.65 555.46 1078.89 551.3 1120 542.05C1190.06 526.3 1202.03 503.46 1260 510C1281.62 512.44 1279.18 541.59 1279.18 560C1279.18 566.59 1269.59 560 1260 560C1190 560 1190 560 1120 560C1078.82 560 1037.65 564.44 1037.65 560" stroke="rgba(11, 49, 66, 0.32)" stroke-width="2"></path></g><defs><mask id="SvgjsMask1005"><rect width="1440" height="560" fill="#ffffff"></rect></mask></defs></svg>